<?xml version="1.0" encoding="utf-8"?>
<!-- Generator: Adobe Illustrator 24.0.1, SVG Export Plug-In . SVG Version: 6.00 Build 0)  -->
<svg version="1.1" id="Layer_1" xmlns="http://www.w3.org/2000/svg" xmlns:xlink="http://www.w3.org/1999/xlink" x="0px" y="0px"
	 viewBox="0 0 12.1 8.8" style="enable-background:new 0 0 12.1 8.8;" xml:space="preserve">
<style type="text/css">
	.st0{fill:none;stroke:#292929;stroke-linejoin:round;}
	.st1{fill:#292929;}
</style>
<path class="st0" d="M0.8,5.7c0,1.3,1.1,2.4,2.4,2.4h6.3c1,0,1.8-0.8,1.8-1.8c0-0.9-0.7-1.7-1.6-1.8c0-0.9-0.4-1.9-1.1-2.6
	c-1.4-1.4-3.8-1.4-5.2,0c-0.5,0.5-0.8,1-1,1.6C1.5,3.7,0.8,4.6,0.8,5.7z"/>
<path class="st1" d="M5.8,2.6l-1,1C4.7,3.8,4.7,3.9,4.8,4s0.3,0.1,0.4,0l0.6-0.6V6c0,0.1,0.1,0.3,0.3,0.3S6.3,6.1,6.3,6V3.4L6.9,4
	C7,4.1,7.2,4.1,7.3,4c0.1-0.1,0.1-0.3,0-0.4c0,0-1.1-1.1-1.1-1.1c0,0,0-0.1-0.2-0.1C5.9,2.5,5.8,2.6,5.8,2.6z"/>
</svg>
